<svg width="63" height="13" viewBox="0 0 63 13" fill="none" xmlns="http://www.w3.org/2000/svg">
<path d="M6.6252 12.8144C4.65403 12.6022 2.90619 11.46 1.87892 9.71294C1.25018 8.64363 0.902592 7.25236 0.947182 5.98353C1.0032 4.38967 1.62394 2.93318 2.74423 1.76703C3.06172 1.43654 3.3057 1.23055 3.70505 0.955851C4.97845 0.0799121 6.46251 -0.2065 7.88871 0.148443C9.78728 0.620946 11.4229 2.31622 11.897 4.30297C12.0204 4.82013 12.0398 5.00091 12.0382 5.62019C12.0365 6.23217 12.0088 6.47968 11.8837 6.99782C11.5456 8.39771 10.7 9.64798 9.59058 10.3883C8.27879 11.2636 6.61273 11.3373 5.08998 10.5874C4.54852 10.3207 3.9227 9.77525 3.51892 9.21807C2.89213 8.35315 2.56392 7.32761 2.56392 6.23401C2.56392 4.41045 3.45979 2.90028 4.98866 2.14659C5.60162 1.84442 6.01247 1.73959 6.58618 1.73899C6.77783 1.73878 7.02166 1.75225 7.12803 1.76892C7.94641 1.89714 8.6819 2.26894 9.26021 2.84679C9.6602 3.24645 9.94284 3.66776 10.1517 4.17569C10.5642 5.17887 10.5278 6.39 10.0547 7.4026C9.40172 8.7999 8.09254 9.56132 6.70256 9.35216C6.0317 9.25121 5.53853 9.00025 5.07461 8.52372C4.48684 7.92 4.16265 7.0949 4.16265 6.2027C4.16265 5.38424 4.45418 4.67435 5.00555 4.15023C5.71096 3.47969 6.5605 3.2901 7.41319 3.61293C8.0359 3.84869 8.50285 4.3509 8.72206 5.02066C8.8072 5.2808 8.8383 5.5254 8.82188 5.80574C8.803 6.12799 8.74876 6.3503 8.62127 6.62798C8.19931 7.54705 7.29946 7.91837 6.49258 7.50639C6.19374 7.35381 5.92637 7.03947 5.8088 6.70252C5.72551 6.46377 5.71437 6.1035 5.78305 5.86895C5.92361 5.38886 6.28034 5.11149 6.71352 5.14547C6.88542 5.15897 7.02488 5.20693 7.02488 5.25258C7.02488 5.26636 6.96489 5.40127 6.89157 5.55237L6.75826 5.82709L6.6607 5.82444C6.53521 5.82104 6.42395 5.92635 6.37965 6.09047C6.29283 6.41219 6.51503 6.79549 6.86812 6.93306C6.97957 6.97649 7.05557 6.98699 7.20539 6.97967C7.45101 6.96768 7.60621 6.89235 7.80206 6.69008C8.05154 6.43241 8.1855 6.08185 8.18494 5.68813C8.18434 5.27091 8.04992 4.94409 7.74929 4.62899C7.44084 4.30569 7.07085 4.14973 6.61231 4.14973C6.33867 4.14973 6.12078 4.20193 5.89666 4.32117C5.11627 4.73636 4.6929 5.58418 4.80705 6.50319C4.92398 7.44459 5.49926 8.24254 6.28031 8.54669C6.72565 8.72011 7.37747 8.74465 7.8319 8.60511C8.54994 8.38461 9.10896 7.87427 9.47528 7.10481C9.94151 6.12551 9.91045 4.99672 9.39211 4.08207C8.92193 3.2524 8.18264 2.69903 7.24407 2.47421C6.93174 2.3994 6.29094 2.40449 5.98592 2.48422C5.53505 2.60206 5.0126 2.85956 4.63041 3.1523C3.07636 4.34266 2.72683 6.74413 3.84684 8.53594C4.38944 9.40401 5.12489 9.96658 6.09659 10.2568C6.83951 10.4788 7.65256 10.4699 8.35823 10.2323C9.47438 9.85637 10.4657 8.89323 10.9835 7.68164C11.1209 7.36032 11.2629 6.89765 11.333 6.54307C11.4018 6.19516 11.4283 5.41031 11.3837 5.04281C11.2556 3.98645 10.8039 3.02889 10.0554 2.22669C8.31564 0.361997 5.84403 0.165906 3.7707 1.72807C3.65354 1.81635 3.39408 2.0571 3.19413 2.26307C2.13208 3.35709 1.58406 4.70426 1.58406 6.22099C1.58406 7.28357 1.87996 8.41296 2.39559 9.31844C2.58283 9.64725 2.94781 10.131 3.23011 10.4246C4.11841 11.3482 5.24024 11.9312 6.47049 12.1084C6.84822 12.1628 7.63592 12.1493 7.98206 12.0825C8.8953 11.9063 9.82507 11.5065 10.6607 10.9309C11.2853 10.5006 11.7179 10.1193 12.8562 8.99602L13.0274 8.82701L12.9414 8.56779C12.2918 6.61072 12.5771 4.39922 13.6977 2.70445C13.9218 2.36548 14.0249 2.23643 14.3469 1.89192C14.6993 1.51496 15.0087 1.24687 15.3924 0.986014C17.1404 -0.20215 19.3539 -0.315006 21.2071 0.689552C22.3943 1.33308 23.4053 2.46437 23.9435 3.75163C24.4721 5.01597 24.6135 6.39107 24.353 7.73345C24.0964 9.05584 23.5138 10.1654 22.5831 11.104C21.9746 11.7177 21.3704 12.124 20.615 12.4277C18.7354 13.1832 16.6911 12.8801 15.0443 11.6017C14.7431 11.3679 14.3015 10.9302 14.0429 10.6091C13.8395 10.3566 13.4841 9.81677 13.3772 9.59791L13.3145 9.4695L12.9094 9.86813C11.8678 10.8933 11.2649 11.3859 10.5036 11.8341C9.70288 12.3054 8.78241 12.645 7.95318 12.7751C7.61872 12.8276 6.93573 12.8478 6.6252 12.8144ZM19.1056 12.1192C20.6466 11.9365 22.0278 11.045 22.9109 9.6632C23.3725 8.94096 23.6658 8.13621 23.7891 7.25356L23.8433 6.86608L23.8305 6.27657C23.817 5.65509 23.78 5.37121 23.645 4.85187C23.3939 3.88609 22.8476 2.92434 22.1577 2.23345C21.1613 1.23563 19.8989 0.698191 18.5516 0.698191C17.7276 0.698191 17.0161 0.867125 16.2949 1.234C14.7259 2.03221 13.6333 3.56136 13.3138 5.40619C13.2463 5.79587 13.2201 6.61547 13.2619 7.02744C13.3133 7.533 13.4914 8.32194 13.5542 8.32194C13.5686 8.32194 13.6458 8.26423 13.7257 8.1937C15.0728 7.00502 16.6182 6.38868 18.3191 6.36174L18.693 6.3558V6.69018V7.02456L18.3062 7.04138C17.1135 7.09326 16.1199 7.37963 15.1861 7.94065C14.9584 8.07749 14.5353 8.37853 14.3352 8.54616C14.0279 8.80352 13.8066 9.00028 13.8066 9.01605C13.8066 9.0469 14.0677 9.50857 14.2008 9.71293C14.4136 10.0399 14.5988 10.2718 14.8745 10.5569C15.7127 11.4234 16.7785 11.9649 17.9452 12.1169C18.202 12.1504 18.8325 12.1517 19.1056 12.1192Z" fill="#929CA5"/>
<path d="M31.8737 12.3098C31.5738 12.2261 31.3724 12.1106 31.1736 11.908C30.9257 11.6554 30.785 11.3368 30.7274 10.8976L30.7124 10.7831L31.0265 10.7906L31.3406 10.7981L31.3734 10.9653C31.4375 11.2914 31.6152 11.5287 31.8949 11.6615C32.0065 11.7146 32.0929 11.7324 32.2848 11.742C32.7152 11.7635 33.0247 11.6404 33.1752 11.388L33.2532 11.2571V11.0524V10.8477L33.181 10.7346C33.051 10.5308 32.8652 10.4373 32.1831 10.2324C31.2882 9.96345 30.9494 9.6748 30.8673 9.11111C30.773 8.46463 31.1564 7.90707 31.8241 7.71927C32.0538 7.65468 32.5491 7.6544 32.7762 7.71877C33.3608 7.88444 33.737 8.31643 33.8214 8.91899L33.8392 9.04605H33.5274H33.2155L33.2003 8.97249C33.1379 8.66986 32.9657 8.45145 32.7119 8.35292C32.3368 8.20736 31.8793 8.2717 31.6582 8.50112C31.5455 8.61805 31.5041 8.72325 31.5018 8.89893C31.5002 9.02802 31.5135 9.08373 31.5701 9.18359C31.6971 9.40766 31.8826 9.49534 32.7504 9.74147C33.576 9.97563 33.9095 10.346 33.9104 11.0294C33.9113 11.6613 33.5536 12.1174 32.9161 12.2974C32.8262 12.3228 32.62 12.3453 32.4152 12.3522C32.1231 12.3618 32.0359 12.355 31.8737 12.3098ZM47.2421 12.3247C46.4359 12.1483 45.8458 11.5496 45.6256 10.6849C45.5689 10.4621 45.5589 10.3645 45.5574 10.0224C45.5551 9.53357 45.609 9.27656 45.7979 8.87214C46.0153 8.40689 46.3084 8.09908 46.7392 7.88383C47.2582 7.62449 47.8192 7.59124 48.3705 7.78714C48.6799 7.89712 48.8485 8.01089 49.127 8.29773L49.3746 8.55271L49.5077 8.8328C49.6878 9.21178 49.747 9.45728 49.7623 9.8897C49.7768 10.2975 49.7461 10.5406 49.6376 10.8782C49.415 11.5707 48.9045 12.0866 48.247 12.2835C48.0004 12.3573 47.4874 12.3784 47.2421 12.3247ZM48.0014 11.7069C48.5082 11.5699 48.9098 11.1301 49.0631 10.544C49.1263 10.3025 49.1278 9.74013 49.0659 9.50076C48.9615 9.09653 48.7264 8.72703 48.4463 8.52692C47.741 8.02303 46.785 8.30231 46.3947 9.12626C46.2598 9.41124 46.2116 9.64665 46.2111 10.0248C46.2098 10.8757 46.646 11.5311 47.3323 11.7097C47.5126 11.7566 47.8222 11.7553 48.0014 11.7069ZM27.4643 10.009V7.70851H28.8309H30.1976V8.01614V8.32376H29.1532H28.1089V8.97914V9.63451H28.947H29.785V9.94214V10.2498H28.947H28.1089V10.9717V11.6937L29.1855 11.7007L30.262 11.7076L30.2693 12.0086L30.2766 12.3095H28.8704H27.4643L27.4643 10.009ZM34.5554 10.009V7.70851L35.4386 7.70871C35.9243 7.70883 36.3951 7.72126 36.4848 7.73636C36.9769 7.81921 37.3378 8.12404 37.4986 8.59271C37.548 8.73671 37.5579 8.82026 37.5586 9.09951C37.5596 9.49899 37.5046 9.70287 37.3292 9.95005C37.1638 10.1831 37.0075 10.299 36.6979 10.418L36.5538 10.4734L35.8769 10.4842L35.2 10.4951V11.4023V12.3095H34.8777H34.5554V10.009ZM36.4958 9.8371C36.6442 9.78217 36.7538 9.6819 36.8381 9.52404L36.9148 9.38039V9.09951V8.81864L36.8428 8.68403C36.8033 8.60999 36.7307 8.51615 36.6816 8.47549C36.5154 8.33794 36.4321 8.32376 35.7899 8.32376H35.2V9.09951V9.87526L35.7996 9.87401C36.2326 9.87326 36.426 9.86297 36.4958 9.8371ZM37.2344 12.1022C37.2752 11.9882 37.4074 11.624 37.5282 11.293C37.7729 10.6227 38.2636 9.27504 38.6045 8.33714L38.8282 7.72189L39.1248 7.71438L39.4215 7.70686L39.5005 7.92837C39.5439 8.05019 39.9169 9.07588 40.3293 10.2077C40.7418 11.3395 41.0792 12.2754 41.0792 12.2875C41.0792 12.2996 40.9284 12.3095 40.744 12.3095C40.4934 12.3095 40.4086 12.3011 40.4082 12.2761C40.4078 12.2577 40.3233 12.0019 40.2203 11.7076L40.033 11.1726L39.1275 11.1656L38.2221 11.1585L38.1452 11.3796C38.1029 11.5011 38.013 11.7601 37.9454 11.955L37.8225 12.3095H37.4914H37.1603L37.2344 12.1022ZM39.7904 10.5106C39.7912 10.4438 39.1351 8.61794 39.1173 8.63776C39.1005 8.65661 38.4491 10.5021 38.4491 10.531C38.4491 10.5382 38.7508 10.544 39.1195 10.544C39.6384 10.544 39.79 10.5364 39.7904 10.5106ZM41.5755 10.0157L41.582 7.72189H41.942H42.302L43.3087 9.45882L44.3154 11.1958L44.322 9.45214L44.3286 7.70851H44.6507H44.9729V10.009V12.3095L44.6183 12.3088L44.2638 12.308L43.2595 10.5816C42.7071 9.63206 42.2459 8.84919 42.2345 8.8419C42.2231 8.83461 42.2138 9.61177 42.2138 10.569V12.3093H41.8913H41.5689L41.5755 10.0157ZM50.3879 10.0082V7.70686L50.7038 7.71438L51.0197 7.72189L51.0263 9.70808L51.0329 11.6943H52.0642H53.0955V12.0019V12.3095H51.7417H50.3879V10.0082ZM53.6257 12.2493C53.6356 12.2162 53.8085 11.7377 54.0098 11.186C54.2111 10.6343 54.578 9.62591 54.8251 8.94516L55.2744 7.70744L55.5709 7.71467L55.8674 7.72191L56.699 10.009C57.1564 11.267 57.5306 12.2992 57.5306 12.3028C57.5306 12.3065 57.3815 12.3095 57.1993 12.3095H56.8679L56.745 11.9551C56.6774 11.7602 56.5875 11.5012 56.5452 11.3796L56.4683 11.1586L55.5649 11.1656L54.6615 11.1727L54.4721 11.7077C54.368 12.0019 54.2825 12.2577 54.2822 12.2761C54.2817 12.3011 54.1967 12.3096 53.9447 12.3096H53.6077L53.6257 12.2493ZM56.2413 10.5242C56.2413 10.4836 55.5832 8.61885 55.5688 8.61844C55.5605 8.6182 55.5415 8.65713 55.5265 8.70495C55.5114 8.75276 55.3644 9.1738 55.1998 9.64058C55.0352 10.1074 54.9005 10.5016 54.9005 10.5166C54.9005 10.5346 55.131 10.544 55.5709 10.544C55.9396 10.544 56.2413 10.5351 56.2413 10.5242ZM43.4635 7.18961C43.4063 7.17101 43.2833 7.11163 43.1903 7.05765C43.0972 7.00367 42.9919 6.95951 42.9561 6.95951C42.8723 6.95951 42.7656 7.04707 42.7448 7.13296L42.7285 7.20026H42.5105H42.2925L42.3071 7.11332C42.3761 6.70242 42.6044 6.45337 42.9132 6.45185C43.0587 6.4511 43.1914 6.49761 43.3708 6.61213C43.5527 6.72822 43.6899 6.73425 43.7764 6.62995C43.8105 6.58888 43.8383 6.5379 43.8383 6.51665C43.8383 6.48598 43.8839 6.47802 44.0598 6.47802H44.2812L44.2644 6.59171C44.2367 6.7787 44.1092 7.02314 43.9974 7.1035C43.825 7.22745 43.6612 7.25387 43.4635 7.18961ZM43.8705 5.45974C43.1396 5.36116 42.497 4.89885 42.1812 4.24439C42.0125 3.89467 41.9104 3.34675 41.9422 2.96162C41.9972 2.29606 42.1961 1.83537 42.6126 1.40889C42.8962 1.11849 43.1577 0.964256 43.5692 0.84472C43.8048 0.776251 44.3785 0.76287 44.6299 0.81998C45.3173 0.976158 45.8361 1.39688 46.1312 2.03751C46.5907 3.03529 46.3455 4.32019 45.5732 4.96096C45.232 5.24401 44.8485 5.40913 44.4113 5.46109C44.1597 5.491 44.1012 5.49076 43.8705 5.45974ZM44.4195 4.43025C44.9425 4.28896 45.2653 3.78369 45.2645 3.10751C45.2635 2.26638 44.6866 1.67427 43.9853 1.79443C43.4149 1.89215 43.039 2.41546 43.039 3.11182C43.039 3.5631 43.1505 3.86961 43.4145 4.14388C43.6948 4.43495 44.039 4.53304 44.4195 4.43025ZM55.9448 5.46246C55.5804 5.41983 55.2129 5.28775 54.9446 5.10298C54.7244 4.95132 54.4357 4.61755 54.3127 4.37225C53.9546 3.65822 53.9433 2.66495 54.2851 1.94281C54.5344 1.41588 54.9546 1.05478 55.5332 0.870033L55.7643 0.796244H56.2284H56.6926L56.9247 0.870281C57.2844 0.985047 57.4862 1.10878 57.7377 1.36876C57.8898 1.52606 57.9866 1.65398 58.0518 1.78382C58.1456 1.97072 58.2526 2.31594 58.2526 2.43154V2.49226H57.6858H57.119L57.102 2.4187C56.994 1.95345 56.4929 1.68175 55.975 1.80766C55.5565 1.90941 55.2709 2.23377 55.1716 2.7201C55.0622 3.25561 55.1892 3.85361 55.4762 4.15487C55.845 4.54207 56.5009 4.57222 56.9038 4.22049C56.9845 4.15002 57.1438 3.86603 57.1438 3.79258V3.74951H57.6889H58.234L58.2167 3.90167C58.1471 4.51567 57.7315 5.05401 57.1374 5.29966C56.7976 5.44017 56.3161 5.5059 55.9448 5.46246ZM27.4562 5.41746C27.4464 5.40737 27.4385 4.3719 27.4385 3.11643V0.833761H28.947H30.4554V1.32864V1.82351H29.5013H28.5473V2.22476V2.62601H29.2951H30.0429V3.13426V3.64251H29.2954H28.548L28.5412 4.53195L28.5344 5.42139L28.0041 5.4286C27.7125 5.43255 27.4659 5.4276 27.4562 5.41746ZM31.1693 5.41746C31.1596 5.40737 31.1516 4.3719 31.1516 3.11643V0.833761H31.7062H32.2607L32.2541 3.12757L32.2475 5.42139L31.7173 5.4286C31.4257 5.43255 31.1791 5.4276 31.1693 5.41746ZM32.9988 5.4162C32.9898 5.40686 32.9824 4.37201 32.9824 3.11654V0.833876H33.5368H34.0912V2.62613V4.41838H35.0066H35.922V4.92703V5.43568L34.4686 5.43443C33.6692 5.43367 33.0078 5.42555 32.9988 5.4162ZM36.6618 5.41771C36.652 5.40759 36.644 4.37211 36.644 3.11665V0.833978H37.2471H37.8502L38.1842 1.66992C38.3679 2.12968 38.6273 2.77971 38.7607 3.11442C38.8941 3.44913 39.009 3.72286 39.0162 3.72273C39.0234 3.72259 39.1474 3.42466 39.2919 3.06067C39.4363 2.69667 39.6936 2.04977 39.8637 1.6231L40.1728 0.847357L40.7678 0.84017L41.3629 0.832982V3.13397V5.43497H40.8603H40.3577L40.351 4.24214L40.3443 3.04932L40.0757 3.7272C39.9279 4.10004 39.7152 4.63573 39.603 4.91762L39.3989 5.43016L39.0133 5.43354L38.6277 5.43691L38.5935 5.349C38.5747 5.30064 38.3633 4.77074 38.1238 4.17143L37.6884 3.08179L37.6755 4.25168L37.6626 5.42157L37.171 5.42884C36.9007 5.43282 36.6715 5.42785 36.6618 5.41771ZM47.6999 3.63604L47.6933 1.83711L47.0873 1.82373L46.4814 1.81036L46.4744 1.32217L46.4673 0.833987H48.2342H50.0012V1.32886V1.82374H49.3952H48.7892V3.62936V5.43499H48.2479H47.7066L47.6999 3.63604ZM50.5942 3.13469V0.833978H52.0898H53.5854V1.32885V1.82373H52.6313H51.6772V2.19823V2.57273H52.425H53.1728V3.08098V3.58923H52.425H51.6772V4.00385V4.41848H52.6706H53.6639L53.6569 4.92004L53.6498 5.4216L52.122 5.42852L50.5942 5.4354L50.5942 3.13469ZM58.33 5.39766C58.33 5.37655 58.4064 5.13859 58.4999 4.86883C58.8048 3.98838 59.284 2.60334 59.5812 1.74348C59.7414 1.28004 59.8806 0.879543 59.8907 0.853496L59.9089 0.80614L60.4243 0.813377L60.9398 0.820613L61.157 1.44924C61.2764 1.79498 61.5298 2.52927 61.72 3.08099C61.9102 3.63271 62.1652 4.3709 62.2866 4.72142C62.408 5.07194 62.5073 5.37589 62.5073 5.39686C62.5073 5.42865 62.4178 5.43499 61.969 5.43499C61.5691 5.43499 61.4241 5.4264 61.4051 5.40155C61.3911 5.38317 61.3191 5.17852 61.2451 4.9468L61.1106 4.52549H60.4213H59.7319L59.5903 4.97355L59.4487 5.42161L58.8894 5.42883C58.4176 5.43491 58.33 5.43006 58.33 5.39766ZM60.7797 3.51637C60.7797 3.47602 60.4319 2.41223 60.4187 2.41223C60.4055 2.41223 60.0577 3.47602 60.0577 3.51637C60.0577 3.52701 60.2201 3.53572 60.4187 3.53572C60.6172 3.53572 60.7797 3.52701 60.7797 3.51637Z" fill="#929CA5"/>
</svg>
